<svg xmlns="http://www.w3.org/2000/svg" width="512" height="512" viewBox="0 0 512 512" role="img" aria-label="Fabulist"><defs><filter id="g" x="0" y="0" width="100%" height="100%"><feTurbulence type="fractalNoise" baseFrequency="0.8" numOctaves="4" stitchTiles="stitch"/></filter><clipPath id="c"><rect width="512" height="512" rx="112"/></clipPath></defs><g clip-path="url(#c)"><rect width="512" height="512" fill="#0c0a07"/><path d="M274 118 V394" stroke="#4d4740" stroke-width="7"/><path d="M296 161.5 H436.0" stroke="#b0aaa0" stroke-width="12" stroke-linecap="round"/><path d="M296 182.5 H429.0" stroke="#b0aaa0" stroke-width="12" stroke-linecap="round"/><path d="M296 203.5 H436.0" stroke="#b0aaa0" stroke-width="12" stroke-linecap="round"/><path d="M296 224.5 H426.2" stroke="#b0aaa0" stroke-width="12" stroke-linecap="round"/><path d="M296 245.5 H434.6" stroke="#b0aaa0" stroke-width="12" stroke-linecap="round"/><path d="M296 266.5 H430.4" stroke="#b0aaa0" stroke-width="12" stroke-linecap="round"/><path d="M296 287.5 H436.0" stroke="#b0aaa0" stroke-width="12" stroke-linecap="round"/><path d="M296 308.5 H427.6" stroke="#b0aaa0" stroke-width="12" stroke-linecap="round"/><path d="M296 329.5 H433.2" stroke="#948d84" stroke-width="12" stroke-linecap="round"/><path d="M296 350.5 H374.4" stroke="#948d84" stroke-width="12" stroke-linecap="round"/><g transform="translate(-84,0) translate(81.9,81.9) scale(0.68)"><path d="M208.8 188 L212.576 130 L299.424 130 L303.2 188 Z" fill="#daa223"/><path d="M256 158 C374.0 178.58 374 225.61999999999998 374 246.2 C374 346.15999999999997 303.2 393.2 256 452 C208.8 393.2 138 346.15999999999997 138 246.2 C138 225.61999999999998 138.0 178.58 256 158 Z M223 246.2 a33 33 0 1 1 66 0 C289 310.88 257.4 369.68 256 399.08 C254.6 369.68 223 310.88 223 246.2 Z" fill="#daa223" fill-rule="evenodd"/><circle cx="256" cy="246.2" r="15.2" fill="#daa223"/></g><rect width="512" height="512" filter="url(#g)" opacity="0.035" style="mix-blend-mode:overlay"/><path d="M50.4 2.5 H461.6" stroke="#fff" stroke-opacity="0.10" stroke-width="5" fill="none"/><rect x="1.5" y="1.5" width="509" height="509" rx="110.5" fill="none" stroke="#37322c" stroke-width="3"/></g></svg>