<svg xmlns="http://www.w3.org/2000/svg" width="512" height="512" viewBox="0 0 512 512" role="img" aria-label="Fabulist"><defs><filter id="g" x="0" y="0" width="100%" height="100%"><feTurbulence type="fractalNoise" baseFrequency="0.8" numOctaves="4" stitchTiles="stitch"/></filter><clipPath id="c"><rect width="512" height="512" rx="112"/></clipPath></defs><g clip-path="url(#c)"><rect width="512" height="512" fill="#0c0a07"/><g fill="#d6715e"><g transform="translate(-17.96,-323.17) scale(1.04167)"><path d="M 389.6,479.2 362.4,412 H 140 v 4 q 10.8,1.6 17.6,3.6 6.8,1.6 12.8,8 2.4,2.4 3.6,8 1.6,5.2 2,12 0.8,6.8 0.8,14.4 0.4,7.6 0.4,14.8 v 78 q 0,10.8 0,23.2 0,12 -0.4,23.6 0,11.2 -0.4,20.8 0,9.6 0,15.2 0,6.4 -0.4,13.2 -0.4,6.4 -1.6,12.4 -0.8,6 -2,10.8 -1.2,4.4 -3.2,6.8 -5.6,6.4 -14.4,10 -8.4,3.6 -18.4,5.2 v 4 h 128 v -4 q -16.4,-0.8 -25.2,-3.6 -8.4,-3.2 -12,-8.8 -3.6,-5.6 -4.8,-16.8 -0.8,-11.6 -1.2,-24.4 0,-6.8 -0.4,-16 0,-9.6 0,-20.8 0,-11.6 0,-24 0,-12.8 0,-25.6 6.4,0 10.8,0 4.4,0 8.4,0 4,0 8.4,0.4 4.4,0 10.4,0.4 11.6,0.8 20,4.4 8.8,3.2 16.4,10 8.4,7.6 14.4,22 6,14 9.2,26.8 h 4.8 V 491.2 h -4.8 q -1.6,10 -3.6,18.8 -2,8.4 -6.8,15.6 -4.8,7.2 -13.2,12.4 -8.4,5.2 -22.8,8.4 -5.6,1.2 -14,2 -8.4,0.4 -16.4,0.8 -7.6,0.4 -14,0.4 -6,0 -7.2,0 0,-2 0,-12.4 0,-10.8 0,-25.6 0,-14.8 0,-31.2 0.4,-16.8 0.8,-30.8 0.4,-7.2 0.8,-12 0.4,-5.2 0.8,-8.4 0.4,-3.2 0.8,-5.6 0.8,-2.4 1.2,-4.8 2,0 6,0 4.4,-0.4 9.2,-0.4 4.8,-0.4 10,-0.4 5.2,-0.4 9.2,-0.4 23.6,0 41.2,2.4 18,2 24.8,5.2 14,6.8 28.8,21.2 14.8,14.4 31.2,34.8 z"/></g></g><rect width="512" height="512" filter="url(#g)" opacity="0.035" style="mix-blend-mode:overlay"/><path d="M50.4 2.5 H461.6" stroke="#fff" stroke-opacity="0.10" stroke-width="5" fill="none"/><rect x="1.5" y="1.5" width="509" height="509" rx="110.5" fill="none" stroke="#37322c" stroke-width="3"/></g></svg>